<svg width="40" height="40" viewBox="0 0 40 40" fill="none" xmlns="http://www.w3.org/2000/svg">
  <!-- Chef Hat -->
  <path d="M20 4C16.5 4 13.5 6.5 13.5 9.5C13.5 10.2 13.7 10.8 14 11.4C12.3 12.2 11 13.8 11 15.7C11 18.5 13.3 20.8 16.1 20.8H23.9C26.7 20.8 29 18.5 29 15.7C29 13.8 27.7 12.2 26 11.4C26.3 10.8 26.5 10.2 26.5 9.5C26.5 6.5 23.5 4 20 4Z" fill="#FF6B35"/>
  
  <!-- Chef Hat Band -->
  <rect x="11" y="18" width="18" height="3" rx="1.5" fill="#FF8C42"/>
  
  <!-- Spoon -->
  <path d="M8 25C8 24.4 8.4 24 9 24H11C11.6 24 12 24.4 12 25V28C12 28.6 11.6 29 11 29H9C8.4 29 8 28.6 8 28V25Z" fill="#D4AF37"/>
  <rect x="9.5" y="29" width="1" height="8" rx="0.5" fill="#D4AF37"/>
  
  <!-- Fork -->
  <path d="M28 25C28 24.4 28.4 24 29 24H31C31.6 24 32 24.4 32 25V28C32 28.6 31.6 29 31 29H29C28.4 29 28 28.6 28 28V25Z" fill="#D4AF37"/>
  <rect x="29" y="29" width="0.4" height="8" rx="0.2" fill="#D4AF37"/>
  <rect x="30" y="29" width="0.4" height="8" rx="0.2" fill="#D4AF37"/>
  <rect x="30.6" y="29" width="0.4" height="8" rx="0.2" fill="#D4AF37"/>
  
  <!-- Cooking Steam -->
  <path d="M16 22C16 22 16.5 23 17 24C17.5 25 18 26 18 26" stroke="#FF6B35" stroke-width="1.5" stroke-linecap="round" fill="none" opacity="0.6"/>
  <path d="M20 22C20 22 20.5 23 21 24C21.5 25 22 26 22 26" stroke="#FF6B35" stroke-width="1.5" stroke-linecap="round" fill="none" opacity="0.6"/>
  <path d="M24 22C24 22 24.5 23 25 24C25.5 25 26 26 26 26" stroke="#FF6B35" stroke-width="1.5" stroke-linecap="round" fill="none" opacity="0.6"/>
</svg>